<svg xmlns="http://www.w3.org/2000/svg" version="1.1" xmlns:xlink="http://www.w3.org/1999/xlink" xmlns:svgjs="http://svgjs.dev/svgjs" width="1000" height="1000" viewBox="0 0 1000 1000"><rect width="1000" height="1000" fill="#282634"></rect><g transform="matrix(0.7,0,0,0.7,149.57575757575756,292.6097178121487)"><svg viewBox="0 0 396 235" data-background-color="#282634" preserveAspectRatio="xMidYMid meet" height="593" width="1000" xmlns="http://www.w3.org/2000/svg" xmlns:xlink="http://www.w3.org/1999/xlink"><g id="tight-bounds" transform="matrix(1,0,0,1,0.2400000000000091,-0.09042049690309284)"><svg viewBox="0 0 395.52 235.1808410635485" height="235.1808410635485" width="395.52"><g><svg viewBox="0 0 395.52 235.1808410635485" height="235.1808410635485" width="395.52"><g transform="matrix(1,0,0,1,0,154.3044160754376)"><svg viewBox="0 0 395.52 80.87642498811093" height="80.87642498811093" width="395.52"><g id="textblocktransform"><svg viewBox="0 0 395.52 80.87642498811093" height="80.87642498811093" width="395.52" id="textblock"><g><svg viewBox="0 0 395.52 58.80464329407578" height="58.80464329407578" width="395.52"><g transform="matrix(1,0,0,1,0,0)"><svg width="395.52" viewBox="1.4955003261566162 -31.094776153564453 326.9175720214844 48.605018615722656" height="58.80464329407578" data-palette-color="#ff4057"><path d="M13.835 14.065l0.019 0.098c0.075 0.379 0.011 0.749-0.19 1.108-0.201 0.359-0.366 0.697-0.493 1.014v0c-0.301 0.229-0.595 0.392-0.882 0.489-0.288 0.091-0.587 0.228-0.898 0.411v0c-0.113 0.049-0.224 0.156-0.334 0.321v0c-0.194 0.018-00c0.084 0.425 0.174 0.849 0.27 1.271 0.09 0.424 0.177 0.848 0.261 1.274v0c0.223 1.132 0.39 2.257 0.501 3.377 0.112 1.12 0.256 2.25 0.433 3.39v0c0.138 0.978 0.199 1.945 0.183 2.899-0.021 0.962 0.025 1.921 0.137 2.878v0c0.018 0.194 0.05 0.377 0.099 0.551 0.041 0.175 0.083 0.371 0.125 0.587v0c0.107 0.543 0.108 1.1 0.003 1.671-0.112 0.572-0.11 1.153 0.006 1.741v0c0.055 0.281 0.153 0.52 0.294 0.717v0c-0.069 0.408-0.105 0.88-0.108 1.418-0.003 0.537 0.008 1.092 0.032 1.665 0.024 0.573 0.066 1.129 0.124 1.667 0.058 0.539 0.127 1.008 0.205 1.407v0c0.112 0.569 0.296 1.127 0.554 1.675 0.252 0.555 0.591 1.035 1.017 1.44v0c0.25 0.026 0.538 0.006 0.865-0.058 0.334-0.066 0.666-0.121 0.997-0.165 0.339-0.039 0.658-0.041 0.957-0.005 0.301 0.043 0.55 0.191 0.749 0.444v0c0.035 0.041 0.058 0.087 0.069 0.139zM53.936 4.008v0c0.029 0.191-0.029 0.359-0.176 0.503-0.146 0.144-0.319 0.292-0.518 0.444v0l-0.594 0.415c-0.196 0.131-0.317 0.285-0.364 0.461v0c-0.275-0.032-0.539-0.038-0.792-0.02-0.254 0.012-0.5 0.037-0.737 0.074v0c-0.31 0.048-0.625 0.127-0.945 0.236-0.327 0.111-0.562 0.313-0.706 0.605v0c-0.126-0.028-0.238-0.034-0.337-0.019v0l-0.287 0.044c-0.356 0.055-0.714 0.14-1.073 0.257-0.36 0.116-0.718 0.202-1.074 0.256v0c-0.191 0.029-0.378 0.045-0.559 0.046-0.182 0.001-0.351-0.047-0.508-0.144v0c-0.206 0.106-0.428 0.177-0.665 0.214v0c-0.31 0.048-0.613 0.047-0.911-0.002-0.299-0.055-0.596-0.124-0.892-0.206-0.29-0.09-0.59-0.172-0.898-0.246-0.302-0.075-0.6-0.127-0.894-0.156v0l-0.325-0.466c-0.393-0.014-0.763-0.071-1.109-0.173-0.34-0.103-0.679-0.226-1.018-0.369-0.339-0.143-0.671-0.281-0.995-0.413-0.324-0.132-0.646-0.211-0.967-0.236v0c-0.133-0.074-0.255-0.146-0.367-0.216-0.105-0.071-0.194-0.186-0.266-0.344v0c-0.321-0.025-0.622-0.076-0.904-0.154v0l-0.812-0.28c-0.259-0.102-0.544-0.183-0.857-0.242-0.314-0.066-0.673-0.078-1.078-0.036v0c-0.178-0.195-0.414-0.368-0.707-0.519-0.285-0.145-0.56-0.197-0.824-0.156v0c-0.165 0.025-0.291 0.079-0.38 0.16v0l0.028 0.178c0.045 0.29 0.175 0.563 0.389 0.82 0.208 0.258 0.454 0.426 0.736 0.504v0c-0.018 0.057-0.02 0.131-0.006 0.223v0c0.022 0.145 0.074 0.282 0.154 0.412 0.082 0.136 0.208 0.214 0.38 0.234v0c-0.052 0.278-0.129 0.563-0.232 0.856-0.102 0.299-0.241 0.583-0.415 0.853-0.174 0.27-0.375 0.5-0.602 0.69-0.226 0.197-0.494 0.319-0.804 0.366v0c-0.092 0.061-0.147 0.141-0.165 0.238-0.018 0.104-0.025 0.21-0.022 0.318 0.003 0.107-0.004 0.213-0.022 0.317-0.025 0.098-0.071 0.176-0.136 0.233v0c-0.088 0.041-0.215 0.074-0.38 0.099v0c-0.237 0.037-0.447 0.032-0.629-0.014-0.176-0.047-0.369-0.115-0.578-0.205v0l-0.021-0.138c-0.044-0.283-0.131-0.503-0.263-0.658-0.131-0.148-0.274-0.288-0.429-0.419-0.156-0.138-0.3-0.281-0.431-0.43-0.131-0.148-0.219-0.368-0.263-0.657v0c-0.064 0.064-0.138 0.112-0.221 0.145-0.075 0.039-0.12 0.096-0.135 0.173v0c-0.083-0.23-0.137-0.431-0.163-0.602v0c-0.073-0.474-0.067-0.937 0.018-1.389 0.092-0.453 0.102-0.916 0.029-1.391v0l-0.083-0.534c-0.084-0.547-0.18-1.079-0.286-1.595-0.108-0.523-0.202-1.045-0.282-1.565v0c-0.069-0.448-0.124-0.895-0.166-1.34-0.042-0.446-0.061-0.898-0.057-1.357v0c0.015-1.608-0.009-3.206-0.071-4.796-0.062-1.582-0.007-3.176 0.163-4.78v0c-0.046-0.121-0.094-0.238-0.145-0.352-0.058-0.113-0.096-0.228-0.114-0.347v0c-0.014-0.092-0.01-0.154 0.012-0.184v0c0.019-0.489 0.172-0.917 0.459-1.285 0.28-0.374 0.683-0.601 1.211-0.682v0l0.099-0.015c0.308 0.074 0.555 0.211 0.741 0.411 0.193 0.2 0.45 0.251 0.772 0.155v0c0.007 0.046 0.008 0.097 0.003 0.151-0.006 0.048-0.006 0.095 0.002 0.141v0c0.041 0.264 0.143 0.443 0.306 0.54 0.163 0.096 0.351 0.199 0.563 0.308v0c-0.082 0.255-0.119 0.541-0.11 0.857 0.015 0.315 0.033 0.629 0.054 0.942 0.028 0.313 0.034 0.615 0.018 0.908-0.015 0.299-0.093 0.554-0.236 0.765v0c0.136 0.229 0.233 0.46 0.289 0.694 0.063 0.233 0.114 0.478 0.154 0.735v0c0.041 0.264 0.069 0.536 0.085 0.817 0.022 0.273 0.055 0.551 0.099 0.835v0c0.041 0.264 0.113 0.495 0.218 0.694v0c0.521-0.08 0.779-0.373 0.775-0.878v0c0.586-0.266 1.1-0.584 1.543-0.956 0.442-0.372 0.865-0.757 1.268-1.157 0.396-0.405 0.788-0.82 1.174-1.243 0.387-0.424 0.833-0.81 1.34-1.158v0l-0.011-0.069c-0.018-0.119 0.006-0.2 0.074-0.244 0.06-0.05 0.054-0.153-0.018-0.311v0c0.338-0.173 0.616-0.382 0.835-0.624 0.22-0.236 0.42-0.49 0.601-0.761v0l0.556-0.855c0.197-0.3 0.422-0.568 0.676-0.802v0c0.129-0.431 0.238-0.883 0.327-1.356 0.081-0.478 0.225-0.928 0.429-1.351v0c0.448-0.069 0.948-0.109 1.5-0.119 0.545-0.01 1.025 0.088 1.441 0.293v0c-0.018 0.192 0.088 0.307 0.317 0.346v0c-0.109 1.042-0.363 2.002-0.761 2.88-0.405 0.872-0.981 1.645-1.726 2.32v0c-0.078 0.282-0.198 0.533-0.36 0.753-0.162 0.221-0.324 0.434-0.488 0.642-0.157 0.206-0.316 0.42-0.478 0.64-0.162 0.221-0.282 0.468-0.361 0.744v0c-0.276 0.09-0.507 0.213-0.691 0.37-0.186 0.15-0.356 0.315-0.511 0.493-0.155 0.179-0.32 0.35-0.498 0.512-0.184 0.163-0.389 0.299-0.615 0.409v0c-0.155 0.267-0.344 0.0.537 0.937-0.182 0.289-0.403 0.549-0.666 0.781-0.268 0.239-0.61 0.419-1.025 0.54v0c-0.046 0.247-0.164 0.442-0.356 0.584-0.192 0 0.177 0.088 0.045 0.155 0.08 0.202 0.106v0c-0.117 0.142-0.224 0.301-0.32 0.477-0.09 0.169-0.193 0.314-0.311 0.437v0c0.064 0.839 0.185 1.66 0.362 2.463 0.17 0.803 0.264 1.611 0.281 2.424v0c0.009 0.413-0.026 0.817-0.104 1.213-0.072 0.402-0.153 0.8-0.245 1.195-0.085 0.402-0.167 0.8-0.245 1.196-0.072 0.402-0.103 0.806-0.095 1.212v0c-0.3 0.633-0.624 1.237-0.972 1.811-0.348 0.567-0.602 1.19-0.761 1.866v0c-0.546 0.352-1.011 0.778-1.393 1.28-0.39 0.502-0.769 0.996-1.139 1.484v0c-0.84 0.304-1.602 0.704-2.286 1.198v0c-0.119 0.029-0.229 0.045-0.329 0.047v0l-0.28 0.006c-0.92 0.019-1.706-0.131-2.36-0.45-0.654-0.326-1.223-0.754-1.707-1.285-0.478-0.53-0.894-1.141-1.249-1.834-0.348-0.686-0.673-1.399-0.975-2.14v0c-0.545 0.418-1.035 0.892-1.47 1.421-0.436 0.523-0.875 1.042-1.318 1.558v0c-0.143 0.196-0.315 0.423-0.516 0.681-0.195 0.251-0.387 0.442-0.578 0.573v0c-0.092 0.049-0.195 0.091-0.307 0.126-0.106 0.042-0.218 0.088-0.337 0.137v0c-0.665 0.394-1.184 0.922-1.558 1.583v0c-0.476 0.203-0.934 0.43-1.376 0.679-0.435 0.249-0.856 0.511-1.263 0.787v0c-0.453 0.03-0.902 0.069-1.348 0.119-0.446 0.043-0.885 0.069-1.319 0.077v0c-0.673 0.014-1.147-0.019-1.422-0.1-0.282-0.074-0.5-0.176-0.657-0.306-0.156-0.13-0.316-0.29-0.48-0.48-0.157-0.19-0.455-0.387-0.893-0.592v0c-0.127-0.311-0.246-0.622-0.359-0.932-0.12-0.311-0.279-0.594-0.478-0.85v0l-0.011-0.51c-0.004-0.213-0.012-0.416-0.023-0.61-0.017-0.193-0.064-0.369-0.141-0.527-0.077-0.152-0.199-0.249-0.366-0.292v0c-0.019-0.893 0.069-1.775 0.264-2.646 0.202-0.864 0.363-1.745 0.485-2.641v0c0.116-0.509 0.178-1.027 0.187-1.555v0c0.024-0.121 0.035-0.254 0.032-0.4-0.003-0.14 0.017-0.284 0.061-0.432v0c0.044-0.148 0.124-0.269 0.242-0.365 0.118-0.096 0.198-0.241 0.241-0.435v0c0.113-0.342 0.178-0.717 0.196-1.124 0.018-0.407 0.047-0.794 0.086-1.162v0c0.105-0.722 0.226-1.445 0.364-2.169 0.145-0.723 0.317-1.437 0.516-2.141v0c-0.023-0.12-0.035-0.226-0.037-0.319v0l-0.008-0.36c-0.019-0.913 0.029-1.804 0.144-2.674 0.108-0.869 0.153-1.76 0.134-2.673v0c-0.009-0.433-0.052-0.889-0.129-1.368v0c0.115-0.242 0.247-0.469 0.396-0.678 0.149-0.21 0.355-0.378 0.62-0.503v0c0.512 0.256 1.018 0.529 1.517 0.818 0.5 0.29 0.98 0.61 1.441 0.96v0l0.018 0.87c0.015 0.693 0.013 1.433-0.003 2.22-0.017 0.781-0.074 1.569-0.171 2.364-0.09 0.795-0.21 1.568-0.361 2.318-0.151 0.75-0.367 1.438-0.647 2.065v0l0.024 1.159c-0.417 0.776-0.687 1.588-0.808 2.438-0.129 0.843-0.281 1.686-0.457 2.53v0c-0.041 0.268-0.131 0.583-0.271 0.946-0.132 0.363-0.196 0.678-0.19 0.944v0c0.003 0.12 0.022 0.24 0.058 0.359 0.043 0.119 0.075 0.238 0.097 0.358v0c-0.184 0.437-0.278 0.903-0.28 1.396 0.004 0.493-0.049 0.981-0.16 1.464v0c0.193 0.309 0.373 0.636 0.541 0.979 0.161 0.343 0.341 0.693 0.542 1.049v0l0.36-0.038c0.22-0.005 0.45 0.007 0.691 0.035 0.241 0.028 0.468 0.04 0.68 0.036v0c0.12-0.003 0.24-0.008 0.36-0.017 0.12-0.016 0.243-0.038 0.369-0.068v0c0.135-0.263 0.32-0.477 0.556-0.642 0.237-0.158 0.48-0.3 0.732-0.426 0.251-0.125 0.488-0.264 0.711-0.415 0.23-0.152 0.413-0.359 0.547-0.621v0l0.51-0.011c0.045-0.074 0.133-0.173 0.264-0.296 0.131-0.123 0.255-0.245 0.372-0.367 0.117-0.122 0.215-0.245 0.293-0.367 0.084-0.122 0.112-0.219 0.083-0.291v0c0.291-0.126 0.534-0.295 0.73-0.506 0.202-0.211 0.398-0.432 0.586-0.662 0.189-0.231 0.374-0.458 0.556-0.682 0.189-0.217 0.415-0.402 0.678-0.555v0c-0.028-0.046-0.042-0.106-0.043-0.179v0c-0.004-0.213 0.059-0.381 0.189-0.504 0.131-0.123 0.156-0.34 0.076-0.652v0l0.111 0.028c0.12-0.003 0.203-0.038 0.248-0.105 0.052-0.074 0.093-0.162 0.124-0.263 0.031-0.094 0.076-0.185 0.135-0.273 0.058-0.081 0.147-0.136 0.266-0.165v0l-0.001-0.07c-0.009-0.433 0.076-0.845 0.254-1.236 0.172-0.384 0.253-0.792 0.244-1.225v0c-0.003-0.12-0.018-0.236-0.047-0.349-0.029-0.106-0.068-0.219-0.117-0.338v0c0.215-0.245 0.349-0.524 0.402-0.839 0.053-0.315 0.08-0.638 0.08-0.972 0.006-0.34 0.019-0.677 0.038-1.011 0.013-0.34 0.103-0.669 0.27-0.986v0c-0.005-0.24-0.095-0.405-0.271-0.494v0l0.428-0.589c0.136-0.196 0.299-0.356 0.49-0.48v0l0.07-0.002c0.267-0.006 0.505 0.056 0.714 0.185 0.203 0.129 0.396 0.268 0.579 0.418 0.19 0.156 0.38 0.309 0.57 0.458 0.197 0.156 0.416 0.268 0.657 0.336v0l0.017 0.79c0.242 0.088 0.425 0.251 0.55 0.489v0c-0.006 0.654-0.009 1.304-0.009 1.95 0 0.653 0.007 1.29 0.02 1.91v0c0.02 0.966 0.064 1.922 0.13 2.868 0.073 0.952 0.217 1.893 0.43 2.822v0c0.266 0.261 0.541 0.522 0.827 0.783 0.279 0.254 0.495 0.55 0.648 0.886v0l0.43-0.009c0.84-0.018 1.484-0.301 1.933-0.851 0.442-0.556 0.752-1.196 0.93-1.92v0c0.356-0.174 0.621-0.413 0.795-0.716 0.174-0.304 0.313-0.637 0.419-1 0.099-0.362 0.188-0.731 0.267-1.105 0.072-0.375 0.202-0.708 0.389-0.999v0c0.02-0.294 0.028-0.584 0.021-0.87v0l-0.019-0.9c-0.029-1.393-0.125-2.781-0.287-4.165-0.162-1.377-0.271-2.752-0.327-4.124v0c-0.097-0.191-0.172-0.416-0.224-0.676v0l-0.127-0.797c-0.032-0.259-0.091-0.505-0.176-0.737-0.091-0.225-0.221-0.382-0.39-0.471v0c0.068-0.241 0.099-0.532 0.092-0.873v0c-0.007-0.313-0.043-0.626-0.11-0.937-0.067-0.312-0.14-0.621-0.219-0.926v0c0.19-0.177 0.343-0.351 0.459-0.52 0.116-0.169 0.318-0.257 0.605-0.263v0c0.167-0.004 0.318 0.04 0.453 0.131 0.135 0.097 0.264 0.204 0.386 0.322 0.122 0.117 0.251 0.221 0.387 0.312 0.135 0.097 0.296 0.144 0.483 0.14v0c0.053-0.001 0.11-0.009 0.17-0.024 0.06-0.015 0.126-0.023 0.199-0.024v0c0.245 0.235 0.448 0.531 0.609 0.887 0.168 0.357 0.319 0.733 0.454 1.131 0.142 0.39 0.296 0.777 0.464 1.161 0.161 0.383 0.365 0.729 0.612 1.037v0c0.001 0.067-0.004 0.13-0.016 0.19-0.005 0.06-0.007 0.127-0.006 0.2v0c0.005 0.22 0.043 0.436 0.114 0.648 0.078 0.218 0.142 0.434 0.194 0.646zM189.894-5.292v0c-0.01 0.407-0.122 0.757-0.336 1.052-0.207 0.295-0.293 0.66-0.258 1.093v0c-0.345 0.185-0.628 0.431-0.849 0.739-0.228 0.308-0.439 0.626-0.634 0.955v0c-1.612 0.993-3.336 1.787-5.171 2.381-1.829 0.588-3.706 0.858-5.632 0.81v0c-0.12-0.003-0.225-0.059-0.316-0.168-0.097-0.109-0.191-0.225-0.281-0.348-0.09-0.122-0.191-0.238-0.302-0.347-0.104-0.116-0.229-0.176-0.375-0.18v0c-0.167-0.004-0.297 0.029-0.393 0.101v0c0.001-0.047 0.009-0.086 0.023-0.12 0.008-0.04 0.012-0.083 0.013-0.13v0c0.007-0.287-0.019-0.581-0.078-0.882-0.066-0.308-0.095-0.606-0.087-0.892v0c0.008-0.333 0.075-0.608 0.2-0.826v0l0.43 0.011c0.24 0.006 0.474-0.005 0.701-0.032 0.234-0.034 0.481-0.048 0.742-0.042v0c0.267 0.007 0.508 0.086 0.724 0.238v0c1.321-0.014 2.58-0.229 3.777-0.645 1.204-0.417 2.425-0.826 3.662-1.229v0c0.2-0.255 0.32-0.545 0.362-0.871 0.048-0.326 0.146-0.63 0.293-0.913v0c-0.613-0.542-1.233-0.971-1.858-1.287-0.632-0.316-1.369-0.438-2.212-0.365v0c-0.499-0.326-1.027-0.519-1.586-0.58-0.565-0.061-1.137-0.148-1.714-0.263v0c-0.139-0.024-0.289-0.057-0.448-0.102-0.152-0.037-0.315-0.058-0.488-0.062v0c-0.12-0.003-0.234 0.024-0.342 0.082-0.108 0.057-0.14 0.147-0.097 0.267v0c-0.115-0.196-0.276-0.314-0.481-0.352-0.199-0.045-0.37-0.139-0.513-0.283v0c-0.765-0.072-1.435-0.229-2.009-0.47-0.567-0.241-1.198-0.513-1.89-0.818v0c-0.191-0.078-0.377-0.139-0.556-0.184-0.179-0.038-0.351-0.109-0.515-0.213v0c-0.428-0.224-0.771-0.519-1.028-0.886-0.251-0.366-0.451-0.775-0.6-1.225-0.142-0.45-0.244-0.916-0.305-1.398-0.061-0.482-0.124-0.927-0.186-1.335v0c0.23-0.381 0.439-0.773 0.629-1.175 0.19-0.409 0.351-0.838 0.483-1.288v0c0.142-0.07 0.287-0.126 0.434-0.169 0.148-0.043 0.306-0.099 0.474-0.168v0c-0.025-0.047-0.037-0.108-0.035-0.181v0c0.003-0.12 0.049-0.239 0.139-0.357 0.09-0.118 0.109-0.237 0.059-0.359v0c0.545-0.473 1.071-0.96 1.577-1.461 0.506-0.507 0.947-1.067 1.322-1.677v0c0.363-0.111 0.654-0.287 0.874-0.528 0.226-0.234 0.449-0.472 0.668-0.714 0.226-0.248 0.472-0.472 0.737-0.672 0.272-0.2 0.611-0.318 1.019-0.354v0c0.104-0.164 0.241-0.297 0.41-0.4 0.169-0.109 0.342-0.208 0.518-0.297 0.169-0.089 0.325-0.192 0.468-0.309 0.15-0.123 0.264-0.29 0.342-0.501v0c0.387 0.01 0.742-0.055 1.065-0.194 0.33-0.132 0.654-0.28 0.972-0.446 0.317-0.159 0.638-0.304 0.961-0.436 0.33-0.138 0.689-0.203 1.075-0.193v0c0.093 0.002 0.19 0.011 0.29 0.027 0.093 0.016 0.199 0.035 0.318 0.058v0c0.162 0.171 0.271 0.374 0.325 0.609 0.054 0.228 0.091 0.476 0.112 0.743 0.02 0.261 0.03 0.524 0.03 0.791 0.007 0.267 0.044 0.508 0.112 0.723v0c-0.223 0.401-0.467 0.805-0.731 1.212-0.263 0.4-0.601 0.705-1.013 0.915v0l-0.08-0.002c-0.167 0.016-0.323-0.025-0.467-0.122-0.137-0.103-0.303-0.158-0.496-0.162v0c-0.12-0.003-0.218 0.031-0.293 0.102v0l-0.184 0.176c-0.048 0.045-0.116 0.094-0.204 0.145-0.081 0.045-0.194 0.042-0.34-0.009v0c-0.343 0.111-0.481 0.311-0.415 0.6v0c-0.454 0.035-0.841 0.162-1.16 0.381-0.319 0.225-0.615 0.471-0.889 0.738-0.267 0.273-0.537 0.52-0.808 0.74-0.272 0.22-0.589 0.339-0.95 0.357v0c-0.425 0.71-0.94 1.334-1.547 1.871-0.6 0.538-1.102 1.149-1.506 1.833v0c0.068 0.195 0.113 0.403 0.134 0.624 0.015 0.214 0.046 0.441 0.093 0.682v0c0.206 0.299 0.456 0.558 0.751 0.779 0.294 0.227 0.586 0.451 0.873 0.672v0l0.1 0.003c0.487 0.012 0.931 0.113 1.333 0.303 0.402 0.19 0.833 0.291 1.293 0.303v0c0.24 0.006 0.444-0.036 0.613-0.125v0c0.623 0.156 1.24 0.291 1.851 0.407 0.611 0.109 1.229 0.194 1.854 0.256v0c0.305 0.061 0.621 0.096 0.948 0.104 0.327 0.008 0.632 0.049 0.917 0.123v0c0.265 0.08 0.526 0.177 0.783 0.289 0.264 0.12 0.527 0.243 0.791 0.37v0c0.547 0.254 1.064 0.53 1.55 0.829 0.486 0.299 0.914 0.653 1.283 1.063 0.377 0.403 0.669 0.867 0.876 1.392 0.2 0.525 0.292 1.124 0.275 1.798zM228.093-1.027v0c-0.096 0.327-0.268 0.586-0.515 0.776-0.24 0.19-0.521 0.335-0.842 0.432-0.321 0.098-0.642 0.152-0.963 0.164-0.328 0.011-0.625 0.007-0.892-0.012v0c-0.12-0.008-0.233-0.02-0.338-0.034-0.105-0.021-0.218-0.035-0.338-0.043v0c-0.12-0.008-0.184 0.047-0.192 0.167-0.008 0.12-0.074 0.199-0.197 0.237v0c-0.116-0.055-0.234-0.1-0.352-0.135-0.118-0.028-0.237-0.047-0.357-0.055v0c-0.173-0.012-0.337-0.013-0.491-0.004-0.161 0.015-0.312 0.018-0.451 0.009v0c-0.193-0.013-0.331-0.046-0.414-0.099-0.076-0.059-0.142-0.12-0.198-0.184-0.056-0.064-0.111-0.131-0.166-0.202-0.055-0.077-0.14-0.143-0.257-0.199v0c-0.168-0.085-0.307-0.108-0.416-0.069-0.11 0.039-0.268-0.045-0.474-0.253v0c-0.269-0.259-0.495-0.569-0.677-0.929-0.175-0.36-0.346-0.739-0.512-1.139-0.166-0.399-0.342-0.799-0.528-1.199-0.193-0.394-0.422-0.748-0.688-1.061v0l-0.29-0.02c-0.432-0.03-0.744 0.132-0.936 0.486v0c-0.115-0.081-0.228-0.18-0.34-0.294-0.112-0.121-0.238-0.224-0.38-0.307v0c-0.564 0.135-1.149 0.241-1.756 0.319-0.607 0.078-1.21 0.096-1.808 0.054v0l-0.509-0.035c-0.146-0.01-0.301-0.044-0.464-0.102v0c-0.246 0.076-0.47 0.174-0.672 0.294-0.202 0.12-0.423 0.171-0.662 0.154v0c-0.14-0.01-0.302-0.071-0.489-0.184v0c-0.146-0.01-0.217 0.045-0.212 0.165 0.005 0.121-0.076 0.175-0.242 0.164v0l-0.329-0.023c-0.333-0.023-0.663-0.033-0.99-0.029-0.328 0.004-0.658-0.006-0.991-0.029v0c-0.459-0.032-0.924-0.124-1.394-0.277v0c-0.124 0.058-0.26 0.082-0.406 0.072v0c-0.097 0.047-0.172 0.122-0.226 0.225-0.054 0.103-0.111 0.196-0.17 0.279-0.052 0.077-0.123 0.142-0.214 0.195-0.084 0.054-0.198 0.066-0.343 0.037v0c-0.066 0.283-0.202 0.501-0.406 0.653-0.204 0.153-0.318 0.399-0.343 0.738v0c-0.27 0.128-0.498 0.293-0.685 0.494-0.182 0.208-0.364 0.426-0.547 0.653-0.183 0.228-0.372 0.442-0.566 0.642-0.201 0.207-0.436 0.361-0.704 0.463v0c-0.129 0.131-0.182 0.355-0.157 0.67v0c-0.281 0.201-0.617 0.371-1.008 0.512-0.397 0.139-0.766 0.197-1.104 0.173v0c-0.692-0.048-1.145-0.454-1.359-1.217v0c0.017-0.239 0.054-0.494 0.113-0.764 0.053-0.277 0.124-0.539 0.215-0.787 0.09-0.241 0.212-0.46 0.367-0.656 0.161-0.196 0.377-0.331 0.649-0.406v0c0.015-0.219-0.047-0.374-0.188-0.464-0.14-0.097-0.19-0.25-0.148-0.461v0c0.667-0.268 1.257-0.638 1.771-1.11 0.521-0.472 0.997-0.976 1.429-1.515 0.438-0.531 0.88-1.072 1.326-1.621 0.445-0.544 0.937-1.027 1.474-1.452v0l0.053-0.758c0.771-0.715 1.3-1.543 1.586-2.486v0c0.263-0.035 0.444-0.143 0.544-0.323 0.1-0.187 0.159-0.413 0.177-0.679v0c0.12 0.008 0.2-0.04 0.241-0.144 0.041-0.104 0.146-0.127 0.315-0.068v0c0.253-0.564 0.529-1.076 0.829-1.536 0.293-0.461 0.589-0.928 0.889-1.402 0.3-0.474 0.568-0.966 0.805-1.477 0.243-0.518 0.437-1.096 0.582-1.734v0c0.334-0.003 0.529-0.154 0.582-0.451 0.061-0.296 0.123-0.563 0.186-0.799v0c0.382-0.308 0.679-0.684 0.891-1.131 0.211-0.446 0.407-0.907 0.587-1.382 0.181-0.482 0.378-0.963 0.592-1.443 0.214-0.48 0.5-0.901 0.86-1.263v0l0.007-0.11c0.008-0.12-0.033-0.199-0.123-0.239-0.097-0.047-0.141-0.13-0.133-0.25v0c0.028-0.018 0.043-0.04 0.044-0.067v0c0.294-0.1 0.524-0.281 0.69-0.543 0.166-0.269 0.396-0.454 0.69-0.554v0c0.477 0.441 0.902 0.718 1.275 0.831 0.38 0.113 0.881 0.215 1.503 0.305v0c0.289 0.354 0.434 0.769 0.435 1.243 0.001 0.468 0.049 0.936 0.142 1.403v0c0.133 0.778 0.29 1.541 0.473 2.289 0.175 0.747 0.296 1.508 0.362 2.28v0c0.041 0.464 0.144 0.906 0.309 1.325 0.158 0.425 0.258 0.853 0.302 1.284v0c0.03 0.343 0.003 0.722-0.079 1.137-0.076 0.416-0.051 0.785 0.073 1.108v0l0.209 0.596c0.101 0.274 0.185 0.558 0.252 0.849 0.06 0.292 0.116 0.583 0.169 0.874v0c0.142 0.738 0.261 1.525 0.357 2.361 0.102 0.836 0.296 1.601 0.582 2.296v0c0.103 0.254 0.277 0.437 0.524 0.547 0.246 0.111 0.524 0.197 0.834 0.259 0.31 0.055 0.616 0.086 0.915 0.094 0.3 0.014 0.559 0.029 0.779 0.044v0l0.359 0.025c0.14 0.01 0.281 0.043 0.424 0.099v0c0.08 0.199 0.115 0.369 0.105 0.509v0c-0.02 0.293-0.133 0.515-0.337 0.668-0.198 0.153-0.304 0.34-0.319 0.559v0c-0.008 0.12 0.029 0.253 0.112 0.399v0c-0.092-0.026-0.234-0.046-0.427-0.06v0c-0.552-0.038-1.101 0.017-1.645 0.167v0c0.164 0.426 0.4 0.786 0.706 1.081 0.306 0.302 0.631 0.585 0.974 0.85v0c0.253-0.176 0.512-0.255 0.778-0.237v0c0.286 0.02 0.551 0.105 0.794 0.256 0.243 0.151 0.508 0.236 0.794 0.256v0c0.213 0.015 0.372-0.011 0.477-0.077v0c0.178 0.226 0.319 0.46 0.422 0.701 0.104 0.234 0.246 0.455 0.425 0.661zM217.231-7.567v0c-0.025-0.416-0.084-0.718-0.177-0.905-0.094-0.187-0.168-0.416-0.223-0.687v0c-0.07-0.339-0.111-0.703-0.125-1.091-0.007-0.381-0.034-0.758-0.082-1.128v0c-0.11-0.823-0.239-1.651-0.388-2.483-0.15-0.826-0.354-1.635-0.613-2.429v0c0.11-0.139 0.169-0.269 0.177-0.388v0l0.007-0.1c-0.203-0.255-0.339-0.562-0.407-0.921-0.069-0.352-0.135-0.704-0.197-1.056-0.062-0.358-0.146-0.692-0.251-1-0.112-0.309-0.308-0.569-0.587-0.782v0c-0.077 0.142-0.122 0.309-0.136 0.501v0c-0.012 0.166-0.006 0.324 0.018 0.473 0.024 0.142 0.029 0.299 0.017 0.472v0c-0.248 0.103-0.433 0.274-0.557 0.513-0.124 0.245-0.311 0.433-0.56 0.562v0c-0.246 0.751-0.573 1.457-0.98 2.117-0.407 0.66-0.833 1.312-1.279 1.956-0.439 0.644-0.862 1.297-1.268 1.957-0.413 0.66-0.752 1.351-1.017 2.074v0c-0.328 0.198-0.557 0.459-0.686 0.785-0.13 0.332-0.207 0.664-0.23 0.996v0c0.204 0.135 0.446 0.218 0.725 0.251 0.272 0.032 0.541 0.058 0.806 0.076 0.259 0.018 0.51 0.059 0.754 0.123 0.236 0.063 0.441 0.198 0.613 0.403v0c0.319-0.071 0.666-0.114 1.041-0.128 0.375-0.007 0.688-0.086 0.939-0.235v0c0.467 0.2 0.977 0.319 1.529 0.357v0c0.293 0.02 0.577 0.017 0.853-0.011 0.283-0.027 0.556-0.068 0.82-0.123v0c0.216 0.062 0.381 0.15 0.493 0.265 0.112 0.115 0.289 0.17 0.53 0.167v0c0.127-0.091 0.204-0.19 0.231-0.295 0.034-0.105 0.104-0.2 0.21-0.286zM245.278-1.777v0c-0.139 0.18-0.298 0.339-0.48 0.474-0.188 0.142-0.36 0.289-0.516 0.441v0c-0.173 0.056-0.362 0.074-0.568 0.054-0.206-0.021-0.397-0.046-0.575-0.077-0.178-0.031-0.344-0.048-0.498-0.05-0.161-0.003-0.292 0.038-0.394 0.122v0c-0.188-0.066-0.321-0.169-0.401-0.312-0.086-0.143-0.248-0.236-0.484-0.279v0c-0.09-0.036-0.186-0.045-0.289-0.029v0c-0.317-0.447-0.603-0.911-0.856-1.392-0.253-0.487-0.492-0.947-0.717-1.377v0c0.069-0.891 0.089-1.797 0.06-2.718v0c-0.005-0.215-0.02-0.434-0.045-0.658-0.025-0.217-0.042-0.423-0.049-0.618v0c0.024-0.239 0.064-0.469 0.119-0.691 0.063-0.228 0.114-0.434 0.152-0.618v0c0.169-0.687 0.346-1.359 0.533-2.017 0.186-0.658 0.36-1.331 0.522-2.018v0c0.161-0.607 0.276-1.252 0.344-1.936 0.068-0.683 0.022-1.334-0.137-1.953v0l-0.012-0.182c0.066-0.188 0.135-0.345 0.208-0.472 0.073-0.127 0.131-0.272 0.174-0.435v0c0.073-0.261 0.029-0.459-0.132-0.596v0c0.092-0.185 0.227-0.299 0.406-0.341 0.172-0.043 0.278-0.17 0.32-0.38v0c0.036-0.09 0.045-0.186 0.028-0.289v0c0.2-0.054 0.405-0.1 0.617-0.139 0.212-0.039 0.408-0.026 0.589 0.038v0c0.306 0.084 0.572 0.214 0.795 0.391 0.223 0.183 0.435 0.378 0.635 0.586v0c0.27 1.193 0.304 2.425 0.104 3.698-0.201 1.273-0.448 2.545-0.742 3.816-0.295 1.277-0.53 2.53-0.706 3.758-0.169 1.229-0.091 2.389 0.236 3.481v0l0.065 0.046c0.117 0.038 0.217 0.005 0.302-0.1 0.084-0.099 0.184-0.129 0.3-0.091v0c0.088 0.056 0.146 0.085 0.173 0.088v0c0.045 0.487 0.156 0.957 0.331 1.41 0.169 0.452 0.365 0.907 0.588 1.365zM284.213-15.639v0c-0.085 0.278-0.185 0.513-0.299 0.706-0.107 0.194-0.161 0.459-0.16 0.796v0c-0.241-0.006-0.437 0.047-0.588 0.161-0.15 0.114-0.276 0.248-0.378 0.402-0.109 0.153-0.218 0.313-0.329 0.48-0.104 0.167-0.225 0.316-0.364 0.444v0c0.073 0.885 0.059 1.768-0.042 2.65-0.095 0.889-0.156 1.765-0.18 2.629v0c-0.032 1.113 0.004 2.218 0.108 3.316 0.105 1.091 0.083 2.185-0.068 3.282v0c-0.046 0.337-0.096 0.646-0.148 0.928-0.052 0.282-0.1 0.578-0.143 0.889v0c-0.026 0.192-0.047 0.391-0.062 0.597-0.014 0.2-0.034 0.396-0.061 0.587v0c-0.096 0.693-0.28 1.375-0.554 2.044-0.273 0.662-0.503 1.334-0.691 2.014v0c-0.326 0.218-0.61 0.468-0.85 0.751-0.247 0.282-0.498 0.54-0.753 0.775-0.248 0.235-0.527 0.432-0.839 0.591-0.319 0.165-0.695 0.254-1.127 0.269v0c-0.105 0.228-0.269 0.387-0.49 0.477-0.221 0.091-0.416 0.232-0.583 0.425v0l-0.069-0.01c-0.601-0.083-1.105-0.236-1.512-0.46-0.407-0.224-0.776-0.47-1.109-0.739-0.341-0.262-0.686-0.539-1.037-0.829-0.35-0.291-0.766-0.543-1.248-0.757v0c-0.592-0.64-1.113-1.324-1.565-2.053-0.458-0.729-0.997-1.406-1.618-2.03v0c-0.1-0.498-0.267-0.922-0.501-1.27-0.228-0.348-0.446-0.741-0.655-1.181v0c-0.096-0.181-0.164-0.349-0.203-0.502-0.04-0.147-0.094-0.322-0.16-0.527v0c-0.046-0.202-0.144-0.35-0.292-0.444-0.142-0.094-0.266-0.195-0.372-0.303v0c-0.09-0.766-0.27-1.484-0.541-2.154-0.271-0.67-0.605-1.322-1.003-1.955v0c-0.182 0.244-0.336 0.509-0.463 0.794-0.12 0.286-0.237 0.573-0.35 0.86-0.114 0.287-0.244 0.572-0.391 0.855-0.147 0.283-0.322 0.531-0.526 0.745v0l-0.015 0.109c-0.016 0.119 0.023 0.198 0.118 0.238 0.09 0.033 0.126 0.108 0.11 0.227v0c-0.004 0.026-0.013 0.049-0.029 0.067-0.01 0.026-0.017 0.051-0.021 0.078v0c-0.132 0.076-0.237 0.183-0.316 0.32-0.079 0.131-0.215 0.196-0.411 0.196v0c0.003 0.122-0.003 0.242-0.019 0.36v0l-0.045 0.327c-0.095 0.687-0.266 1.367-0.514 2.039-0.253 0.665-0.429 1.357-0.528 2.078v0l-0.063 0.455c-0.024 0.172-0.032 0.329-0.024 0.471v0c0.026 0.152 0.079 0.307 0.158 0.466 0.073 0.151 0.102 0.287 0.085 0.406v0c-0.024 0.172-0.118 0.317-0.282 0.435v0c0.155 0.143 0.329 0.301 0.52 0.476 0.199 0.169 0.375 0.358 0.528 0.567 0.154 0.203 0.276 0.412 0.368 0.626 0.091 0.221 0.12 0.451 0.087 0.688v0c-0.055 0.403-0.227 0.672-0.515 0.808-0.287 0.129-0.618 0.214-0.995 0.256-0.383 0.048-0.779 0.085-1.186 0.109-0.401 0.032-0.749 0.136-1.042 0.311v0l-0.109-0.015c-0.284-0.039-0.487-0.151-0.61-0.336-0.116-0.184-0.319-0.296-0.61-0.337v0c-0.347-0.802-0.543-1.673-0.588-2.614-0.039-0.941-0.001-1.827 0.114-2.66v0c0.141-1.024 0.371-2.035 0.69-3.034 0.319-0.999 0.674-1.983 1.063-2.952 0.388-0.963 0.799-1.919 1.233-2.869 0.434-0.95 0.851-1.905 1.253-2.866v0l0.054-0.103c0.016-0.119-0.002-0.206-0.055-0.26-0.06-0.055-0.083-0.133-0.069-0.232v0c0.006-0.046 0.023-0.068 0.05-0.064v0c0.105-0.228 0.216-0.445 0.331-0.651 0.108-0.2 0.204-0.43 0.287-0.687v0c0.237-0.647 0.434-1.316 0.589-2.008 0.157-0.698 0.289-1.39 0.397-2.076 0.109-0.692 0.228-1.385 0.358-2.08 0.13-0.702 0.306-1.388 0.525-2.058v0c0.211-0.166 0.417-0.343 0.619-0.53 0.195-0.195 0.436-0.357 0.723-0.486v0c0.473 0.085 0.939 0.22 1.397 0.404 0.458 0.191 0.884 0.445 1.279 0.762v0c0.143 1.063 0.197 2.113 0.161 3.151-0.029 1.039 0.015 2.092 0.13 3.158v0l-0.013 0.099c-0.016 0.119 0.042 0.184 0.175 0.195 0.134 0.005 0.231 0.059 0.29 0.162v0c-0.056 0.066-0.098 0.148-0.124 0.245-0.026 0.091-0.045 0.182-0.058 0.275v0l-0.085 0.614c0.02 0.198 0.052 0.408 0.095 0.629 0.044 0.221 0.181 0.375 0.411 0.46v0c0.014 0.776 0.096 1.504 0.244 2.184 0.15 0.673 0.339 1.329 0.568 1.966 0.229 0.637 0.481 1.274 0.756 1.911 0.277 0.63 0.562 1.292 0.857 1.985v0c0.532 0.538 0.972 1.127 1.321 1.767 0.348 0.647 0.707 1.268 1.076 1.864 0.362 0.595 0.796 1.133 1.302 1.613 0.505 0.487 1.203 0.839 2.095 1.056v0c0.132-0.076 0.232-0.197 0.303-0.362v0l0.246-0.471c0.095-0.155 0.195-0.293 0.299-0.413 0.097-0.121 0.237-0.206 0.419-0.255v0c0.138-0.661 0.284-1.33 0.438-2.009 0.155-0.685 0.394-1.322 0.718-1.91v0c-0.09-0.228-0.113-0.497-0.071-0.808v0c0.033-0.238 0.081-0.463 0.144-0.676 0.069-0.206 0.118-0.418 0.148-0.636v0c0.062-0.449 0.017-0.832-0.134-1.149v0c0.023-0.165 0.056-0.335 0.1-0.511 0.051-0.175 0.147-0.336 0.289-0.485v0c-0.126-0.502-0.205-1.024-0.238-1.567-0.034-0.536-0.013-1.079 0.062-1.627v0c0.043-0.31 0.123-0.626 0.242-0.946v0c-0.096-0.377-0.134-0.809-0.114-1.298v0l0.052-1.476c0.023-0.508 0.018-0.983-0.016-1.426-0.04-0.443-0.174-0.815-0.401-1.115v0c0.174-0.191 0.281-0.429 0.32-0.713v0c0.066-0.482 0.057-0.948-0.03-1.397-0.08-0.442-0.087-0.904-0.021-1.386v0c0.045-0.33 0.161-0.654 0.346-0.972v0c0.525 0.099 1.035 0.227 1.532 0.383 0.504 0.15 1.007 0.26 1.509 0.329v0c0.112 0.211 0.256 0.389 0.432 0.534 0.175 0.145 0.364 0.286 0.567 0.421 0.196 0.141 0.388 0.286 0.577 0.433 0.182 0.146 0.318 0.333 0.407 0.56zM328.305-7.144l0.108 0.02c-0.157 0.289-0.364 0.542-0.622 0.757v0l-0.751 0.631c-0.235 0.2-0.44 0.425-0.617 0.677-0.182 0.244-0.284 0.547-0.306 0.909v0c-0.046-0.009-0.104-0.026-0.173-0.053-0.071-0.02-0.129-0.035-0.175-0.044v0c-0.38-0.072-0.685-0.039-0.915 0.101-0.237 0.138-0.533 0.235-0.889 0.289v0c-0.018-0.153-0.051-0.302-0.099-0.446-0.041-0.143-0.129-0.252-0.264-0.325v0c-0.592 0.01-1.176-0.01-1.75-0.058-0.581-0.049-1.162-0.078-1.744-0.087v0c-0.271-0.004-0.544 0.008-0.821 0.037-0.272 0.037-0.558 0.064-0.861 0.081v0c-0.146 0.02-0.303 0.007-0.471-0.039-0.162-0.038-0.327-0.062-0.495-0.073v0c-0.575-0.082-1.199-0.157-1.871-0.224-0.673-0.067-1.297 0.005-1.873 0.214v0c-0.226-0.097-0.468-0.181-0.726-0.25-0.25-0.075-0.507-0.137-0.768-0.186v0c-0.57-0.108-1.199-0.174-1.887-0.196-0.696-0.017-1.335 0.079-1.917 0.287v0c-0.108-0.075-0.222-0.134-0.343-0.177-0.126-0.051-0.274-0.093-0.445-0.125v0c-0.046-0.009-0.08-0.008-0.102 0.001-0.029 0.008-0.066 0.008-0.112-0.001v0c-0.066 0.205-0.076 0.417-0.029 0.635 0.04 0.218 0.157 0.406 0.351 0.566v0c-0.147 0.237-0.249 0.509-0.308 0.817v0c-0.076 0.4-0.123 0.808-0.141 1.225-0.01 0.412-0.054 0.818-0.13 1.217v0c-0.086 0.452-0.216 0.797-0.39 1.035v0c0.108 0.753 0.086 1.53-0.066 2.329v0c-0.055 0.288-0.127 0.563-0.218 0.824-0.085 0.269-0.157 0.557-0.215 0.865v0c-0.049 0.255 0.007 0.48 0.167 0.673 0.155 0.185 0.207 0.409 0.158 0.671v0c-0.017 0.092-0.058 0.182-0.123 0.272v0c0.348-0.009 0.688-0.049 1.02-0.121 0.326-0.074 0.656-0.079 0.991-0.016v0c0.19 0.036 0.366 0.107 0.529 0.213 0.163 0.106 0.306 0.231 0.428 0.376v0c-0.049 0.113-0.093 0.24-0.134 0.382-0.039 0.135-0.073 0.275-0.1 0.419v0c-0.05 0.262-0.089 0.506-0.119 0.73-0.029 0.225-0.056 0.471-0.079 0.739v0c-0.252 0.291-0.528 0.544-0.826 0.759-0.299 0.215-0.532 0.513-0.7 0.895v0c-0.36-0.068-0.689-0.053-0.986 0.046-0.305 0.105-0.592 0.223-0.861 0.356-0.269 0.132-0.536 0.251-0.801 0.357-0.266 0.112-0.539 0.142-0.821 0.088v0c-0.354-0.067-0.593-0.167-0.716-0.299-0.116-0.137-0.199-0.272-0.249-0.404-0.05-0.132-0.095-0.249-0.137-0.352-0.04-0.109-0.158-0.169-0.353-0.179v0c0.013-0.317-0.028-0.623-0.121-0.918-0.085-0.301-0.182-0.594-0.29-0.88-0.101-0.291-0.204-0.588-0.309-0.893-0.1-0.297-0.159-0.593-0.177-0.889v0c-0.027-0.643 0.035-1.293 0.187-1.949 0.145-0.658 0.159-1.317 0.04-1.978v0c0.115-0.318 0.215-0.648 0.3-0.991 0.091-0.336 0.168-0.67 0.232-1.004v0c0.126-0.661 0.231-1.32 0.314-1.976 0.09-0.655 0.188-1.328 0.293-2.021v0c-0.124-0.241-0.176-0.502-0.157-0.783 0.012-0.276 0.033-0.547 0.063-0.813v0c-0.06-0.079-0.125-0.163-0.196-0.251-0.065-0.087-0.099-0.192-0.103-0.315v0c-0.181-0.082-0.318-0.132-0.41-0.149v0c-0.334-0.063-0.627-0.041-0.878 0.067-0.253 0.115-0.474 0.154-0.663 0.118v0c-0.19-0.036-0.362-0.096-0.516-0.179-0.155-0.077-0.318-0.132-0.488-0.164v0c-0.138-0.026-0.218-0.011-0.243 0.045-0.024 0.056-0.087 0.099-0.187 0.128v0c-0.082 0.039-0.258 0.056-0.529 0.052-0.271-0.004-0.566-0.019-0.887-0.047-0.328-0.022-0.642-0.051-0.94-0.087-0.3-0.03-0.499-0.054-0.597-0.072v0c-0.373-0.071-0.647-0.201-0.822-0.391-0.173-0.196-0.383-0.415-0.628-0.658v0c0.072-0.129 0.113-0.219 0.123-0.272v0c0.045-0.236 0.013-0.442-0.096-0.619-0.114-0.185-0.16-0.336-0.137-0.454v0c0.049-0.255 0.188-0.436 0.418-0.541 0.224-0.107 0.378-0.308 0.461-0.605v0c0.59-0.139 1.177-0.214 1.763-0.225 0.592-0.01 1.189 0.009 1.791 0.056 0.603 0.04 1.206 0.066 1.807 0.079 0.594 0.018 1.196-0.027 1.807-0.135v0c0.159 0.057 0.312 0.107 0.46 0.148 0.155 0.043 0.314 0.08 0.478 0.111v0c0.707 0.134 1.426 0.19 2.157 0.166 0.723-0.019 1.451 0.042 2.185 0.181v0c0.19 0.036 0.378 0.082 0.564 0.138 0.185 0.062 0.365 0.134 0.539 0.214v0c0.976 0.043 1.945 0.068 2.908 0.075 0.968 0.014 1.957 0.056 2.968 0.126v0c0.48 0.044 0.957 0.09 1.429 0.139 0.465 0.054 0.94 0.09 1.425 0.108v0c0.167 0.011 0.299-0.004 0.396-0.047 0.096-0.043 0.163-0.159 0.199-0.349v0c0.192 0.132 0.419 0.222 0.681 0.272v0c0.4 0.076 0.803 0.078 1.21 0.006 0.399-0.067 0.802-0.061 1.208 0.016v0c0.092 0.017 0.172 0.04 0.242 0.067 0.071 0.02 0.142 0.037 0.214 0.051v0c0.164 0.031 0.266-0.027 0.309-0.176 0.042-0.148 0.172-0.229 0.392-0.241v0c0.172-0.015 0.414-0.003 0.726 0.036 0.313 0.032 0.643 0.061 0.991 0.087 0.353 0.033 0.683 0.048 0.989 0.045 0.306-0.003 0.539-0.05 0.698-0.142v0l0.331-0.344c0.421 0.107 0.697 0.35 0.828 0.727 0.137 0.386 0.181 0.781 0.131 1.186v0c0.074 0.109 0.201 0.174 0.381 0.194 0.178 0.027 0.339 0.054 0.483 0.082z" opacity="1" transform="matrix(1,0,0,1,0,0)" fill="#ff4057" class="undefined-text-0" data-fill-palette-color="primary" id="text-0"></path></svg></g></svg></g><g transform="matrix(1,0,0,1,118.31980799999998,65.28511881775576)"><svg viewBox="0 0 158.88038400000002 15.591306170355178" height="15.591306170355178" width="158.88038400000002"><g transform="matrix(1,0,0,1,0,0)"><svg width="158.88038400000002" viewBox="2.5999999046325684 -36.400001525878906 463.1099853515625 45.45000076293945" height="15.591306170355178" data-palette-color="#dcdcdc"><path d="M15.7-34.8Q21.35-34.8 24.58-32.3 27.8-29.8 27.8-25.2L27.8-25.2 27.8-24.6 22.9-24.6 22.9-25.35Q22.9-27.75 20.95-29.05 19-30.35 15.8-30.35L15.8-30.35Q12.25-30.35 10.28-29.18 8.3-28 8.3-25.8L8.3-25.8Q8.3-24.15 9.43-23.1 10.55-22.05 12.23-21.45 13.9-20.85 16.85-20.1L16.85-20.1Q20.65-19.1 23-18.15 25.35-17.2 27.03-15.3 28.7-13.4 28.7-10.25L28.7-10.25Q28.7-4.65 25.28-2.08 21.85 0.5 15.65 0.5L15.65 0.5Q9.45 0.5 6.03-2.13 2.6-4.75 2.6-9.75L2.6-9.75 2.65-10.75 7.55-10.75 7.5-9.7Q7.5-6.8 9.68-5.38 11.85-3.95 15.7-3.95L15.7-3.95Q19.45-3.95 21.63-5.33 23.8-6.7 23.8-9.1L23.8-9.1Q23.8-11 22.63-12.18 21.45-13.35 19.68-14 17.9-14.65 14.85-15.45L14.85-15.45Q11.1-16.45 8.85-17.35 6.6-18.25 5-20.13 3.4-22 3.4-25.05L3.4-25.05Q3.4-30 6.75-32.4 10.1-34.8 15.7-34.8L15.7-34.8ZM45.7-26.05Q51.05-26.05 54.25-22.75 57.45-19.45 57.45-13.7L57.45-13.7 57.45-11.85Q57.45-6.1 54.3-2.8 51.15 0.5 45.7 0.5L45.7 0.5Q40.25 0.5 37.1-2.8 33.95-6.1 33.95-11.85L33.95-11.85 33.95-13.7Q33.95-19.45 37.15-22.75 40.35-26.05 45.7-26.05L45.7-26.05ZM45.7-22.3Q42.35-22.3 40.5-20 38.65-17.7 38.65-13.25L38.65-13.25 38.65-12.3Q38.65-7.95 40.47-5.6 42.3-3.25 45.7-3.25L45.7-3.25Q49-3.25 50.87-5.58 52.75-7.9 52.75-12.3L52.75-12.3 52.75-13.25Q52.75-17.6 50.92-19.95 49.1-22.3 45.7-22.3L45.7-22.3ZM71.15-36.4Q74-36.4 75.84-35.45L75.84-35.45 75.84-32Q74.34-32.65 73.3-32.65L73.3-32.65Q71.3-32.65 70.59-31.93 69.9-31.2 69.9-29.5L69.9-29.5 69.9-25.55 75.84-25.55 75.84-21.8 69.9-21.8 69.9 0 65.2 0 65.2-21.8 62.4-21.8 62.4-25.55 65.2-25.55 65.2-29Q65.2-36.4 71.15-36.4L71.15-36.4ZM86.59-33.7L86.59-25.55 92.54-25.55 92.54-21.8 86.59-21.8 86.59-6.55Q86.59-4.75 87.29-3.95 87.99-3.15 89.44-3.15L89.44-3.15Q90.74-3.15 92.54-3.9L92.54-3.9 92.54-0.4Q90.74 0.5 87.89 0.5L87.89 0.5Q84.94 0.5 83.42-1.25 81.89-3 81.89-6.8L81.89-6.8 81.89-21.8 79.09-21.8 79.09-25.55 82.04-25.55 83.64-33.7 86.59-33.7ZM129.09-25.55L133.69-25.55 125.34 0 120.44 0 114.54-17.85 114.34-17.85 108.54 0 103.64 0 95.24-25.55 100.09-25.55 106.04-6.85 106.24-6.85 112.29-25.55 116.89-25.55 122.84-6.85 123.04-6.85 129.09-25.55ZM148.99-26.05Q154.04-26.05 156.51-24.05 158.99-22.05 158.99-18.25L158.99-18.25 158.99-5Q158.99-4.1 159.39-3.68 159.79-3.25 160.39-3.25L160.39-3.25Q161.54-3.25 162.69-3.95L162.69-3.95 162.69-0.5Q160.99 0.5 158.84 0.5L158.84 0.5Q156.69 0.5 155.64-0.73 154.59-1.95 154.49-4.1L154.49-4.1Q151.39 0.5 145.54 0.5L145.54 0.5Q141.34 0.5 139.26-1.33 137.19-3.15 137.19-7.1L137.19-7.1Q137.19-10.2 138.79-11.98 140.39-13.75 144.09-14.55 147.79-15.35 154.29-15.35L154.29-15.35 154.29-17.7Q154.29-20.25 152.79-21.28 151.29-22.3 148.44-22.3L148.44-22.3Q145.74-22.3 144.24-21.25 142.74-20.2 142.74-18.3L142.74-18.3 142.74-17.7 138.14-17.7Q138.04-18.4 138.04-19.35L138.04-19.35Q138.04-21.1 139.44-22.65 140.84-24.2 143.24-25.13 145.64-26.05 148.54-26.05L148.54-26.05 148.99-26.05ZM154.29-11.7Q149.04-11.7 146.36-11.18 143.69-10.65 142.79-9.6 141.89-8.55 141.89-6.7L141.89-6.7Q141.89-3.25 147.14-3.25L147.14-3.25Q148.99-3.25 150.64-4.17 152.29-5.1 153.29-6.8 154.29-8.5 154.29-10.7L154.29-10.7 154.29-11.7ZM179.69-26.05Q183.24-26.05 185.24-23.78 187.24-21.5 187.24-18.05L187.24-18.05 187.09-16.15 182.94-16.15 182.94-17.25Q182.94-18.75 182.19-19.9 181.44-21.05 180.29-21.68 179.14-22.3 177.99-22.3L177.99-22.3Q175.59-22.3 174.24-20.4 172.89-18.5 172.89-15.25L172.89-15.25 172.89 0 168.19 0 168.19-25.55 171.54-25.55 172.24-21.75Q172.54-22.75 173.59-23.75 174.64-24.75 176.21-25.4 177.79-26.05 179.69-26.05L179.69-26.05ZM202.93-26.05Q206.08-26.05 208.51-24.73 210.93-23.4 212.28-20.95 213.63-18.5 213.63-15.25L213.63-15.25 213.63-11.7 195.78-11.7Q195.88-7.65 197.68-5.45 199.48-3.25 203.03-3.25L203.03-3.25Q206.18-3.25 207.68-5.1 209.18-6.95 209.18-9.5L209.18-9.5 213.63-9.5Q213.63-6.5 212.26-4.25 210.88-2 208.46-0.75 206.03 0.5 202.93 0.5L202.93 0.5 202.73 0.5Q197.33 0.5 194.21-2.98 191.08-6.45 191.08-12.25L191.08-12.25 191.08-13.25Q191.08-17.05 192.48-19.95 193.88-22.85 196.48-24.45 199.08-26.05 202.58-26.05L202.58-26.05 202.93-26.05ZM202.68-22.3Q199.83-22.3 198.06-20.55 196.28-18.8 195.88-15.35L195.88-15.35 208.98-15.35 208.98-15.95Q208.98-18.8 207.26-20.55 205.53-22.3 202.68-22.3L202.68-22.3ZM245.03-34.3Q249.33-34.3 252.53-32.43 255.73-30.55 257.48-27.08 259.23-23.6 259.23-18.9L259.23-18.9 259.23-15.4Q259.23-10.7 257.48-7.23 255.73-3.75 252.53-1.88 249.33 0 245.03 0L245.03 0 233.13 0 233.13-34.3 245.03-34.3ZM245.03-29.85L238.03-29.85 238.03-4.45 245.03-4.45Q249.48-4.45 251.9-7.23 254.33-10 254.33-15.4L254.33-15.4 254.33-18.9Q254.33-24.2 251.95-27.03 249.58-29.85 245.03-29.85L245.03-29.85ZM276.68-26.05Q279.83-26.05 282.25-24.73 284.68-23.4 286.03-20.95 287.38-18.5 287.38-15.25L287.38-15.25 287.38-11.7 269.53-11.7Q269.63-7.65 271.43-5.45 273.23-3.25 276.78-3.25L276.78-3.25Q279.93-3.25 281.43-5.1 282.93-6.95 282.93-9.5L282.93-9.5 287.38-9.5Q287.38-6.5 286-4.25 284.63-2 282.2-0.75 279.78 0.5 276.68 0.5L276.68 0.5 276.48 0.5Q271.08 0.5 267.95-2.98 264.83-6.45 264.83-12.25L264.83-12.25 264.83-13.25Q264.83-17.05 266.23-19.95 267.63-22.85 270.23-24.45 272.83-26.05 276.33-26.05L276.33-26.05 276.68-26.05ZM276.43-22.3Q273.58-22.3 271.8-20.55 270.03-18.8 269.63-15.35L269.63-15.35 282.73-15.35 282.73-15.95Q282.73-18.8 281-20.55 279.28-22.3 276.43-22.3L276.43-22.3ZM310.47-25.55L315.07-25.55 305.37 0 300.37 0 290.67-25.55 295.67-25.55 302.97-6 303.17-6 310.47-25.55ZM330.07-26.05Q333.22-26.05 335.65-24.73 338.07-23.4 339.42-20.95 340.77-18.5 340.77-15.25L340.77-15.25 340.77-11.7 322.92-11.7Q323.02-7.65 324.82-5.45 326.62-3.25 330.17-3.25L330.17-3.25Q333.32-3.25 334.82-5.1 336.32-6.95 336.32-9.5L336.32-9.5 340.77-9.5Q340.77-6.5 339.4-4.25 338.02-2 335.6-0.75 333.17 0.5 330.07 0.5L330.07 0.5 329.87 0.5Q324.47 0.5 321.35-2.98 318.22-6.45 318.22-12.25L318.22-12.25 318.22-13.25Q318.22-17.05 319.62-19.95 321.02-22.85 323.62-24.45 326.22-26.05 329.72-26.05L329.72-26.05 330.07-26.05ZM329.82-22.3Q326.97-22.3 325.2-20.55 323.42-18.8 323.02-15.35L323.02-15.35 336.12-15.35 336.12-15.95Q336.12-18.8 334.4-20.55 332.67-22.3 329.82-22.3L329.82-22.3ZM347.82-36L352.52-36 352.52 0 347.82 0 347.82-36ZM371.22-26.05Q376.57-26.05 379.77-22.75 382.97-19.45 382.97-13.7L382.97-13.7 382.97-11.85Q382.97-6.1 379.82-2.8 376.67 0.5 371.22 0.5L371.22 0.5Q365.77 0.5 362.62-2.8 359.47-6.1 359.47-11.85L359.47-11.85 359.47-13.7Q359.47-19.45 362.67-22.75 365.87-26.05 371.22-26.05L371.22-26.05ZM371.22-22.3Q367.87-22.3 366.02-20 364.17-17.7 364.17-13.25L364.17-13.25 364.17-12.3Q364.17-7.95 365.99-5.6 367.82-3.25 371.22-3.25L371.22-3.25Q374.52-3.25 376.39-5.58 378.27-7.9 378.27-12.3L378.27-12.3 378.27-13.25Q378.27-17.6 376.44-19.95 374.62-22.3 371.22-22.3L371.22-22.3ZM401.76-26.05Q406.61-26.05 409.36-22.5 412.11-18.95 412.11-12.75L412.11-12.75 412.11-12.2Q412.11-6.3 409.39-2.9 406.66 0.5 401.76 0.5L401.76 0.5Q397.06 0.5 394.41-3.25L394.41-3.25 394.41 9.05 389.71 9.05 389.71-25.55 393.21-25.55Q393.56-23.95 393.86-22.05L393.86-22.05Q396.71-26.05 401.76-26.05L401.76-26.05ZM400.91-22.3Q397.51-22.3 395.94-19.95 394.36-17.6 394.36-12.8L394.36-12.8Q394.36-7.9 395.99-5.58 397.61-3.25 400.91-3.25L400.91-3.25Q404.21-3.25 405.81-5.6 407.41-7.95 407.41-12.8L407.41-12.8Q407.41-17.7 405.79-20 404.16-22.3 400.91-22.3L400.91-22.3ZM429.11-26.05Q432.26-26.05 434.69-24.73 437.11-23.4 438.46-20.95 439.81-18.5 439.81-15.25L439.81-15.25 439.81-11.7 421.96-11.7Q422.06-7.65 423.86-5.45 425.66-3.25 429.21-3.25L429.21-3.25Q432.36-3.25 433.86-5.1 435.36-6.95 435.36-9.5L435.36-9.5 439.81-9.5Q439.81-6.5 438.44-4.25 437.06-2 434.64-0.75 432.21 0.5 429.11 0.5L429.11 0.5 428.91 0.5Q423.51 0.5 420.39-2.98 417.26-6.45 417.26-12.25L417.26-12.25 417.26-13.25Q417.26-17.05 418.66-19.95 420.06-22.85 422.66-24.45 425.26-26.05 428.76-26.05L428.76-26.05 429.11-26.05ZM428.86-22.3Q426.01-22.3 424.24-20.55 422.46-18.8 422.06-15.35L422.06-15.35 435.16-15.35 435.16-15.95Q435.16-18.8 433.44-20.55 431.71-22.3 428.86-22.3L428.86-22.3ZM458.16-26.05Q461.71-26.05 463.71-23.78 465.71-21.5 465.71-18.05L465.71-18.05 465.56-16.15 461.41-16.15 461.41-17.25Q461.41-18.75 460.66-19.9 459.91-21.05 458.76-21.68 457.61-22.3 456.46-22.3L456.46-22.3Q454.06-22.3 452.71-20.4 451.36-18.5 451.36-15.25L451.36-15.25 451.36 0 446.66 0 446.66-25.55 450.01-25.55 450.71-21.75Q451.01-22.75 452.06-23.75 453.11-24.75 454.68-25.4 456.26-26.05 458.16-26.05L458.16-26.05Z" opacity="1" transform="matrix(1,0,0,1,0,0)" fill="#dcdcdc" class="undefined-text-1" data-fill-palette-color="secondary" id="text-1"></path></svg></g></svg></g></svg></g></svg></g><g transform="matrix(1,0,0,1,117.03813208210815,0)"><svg viewBox="0 0 161.44373583578368 130.85805563076346" height="130.85805563076346" width="161.44373583578368"><g><svg xmlns:x="http://ns.adobe.com/Extensibility/1.0/" xmlns:i="http://ns.adobe.com/AdobeIllustrator/10.0/" xmlns:graph="http://ns.adobe.com/Graphs/1.0/" xmlns="http://www.w3.org/2000/svg" xmlns:xlink="http://www.w3.org/1999/xlink" version="1.1" x="0" y="0" viewBox="3.5 12.300000190734863 92.89999389648438 75.29999542236328" enable-background="new 0 0 100 100" xml:space="preserve" height="130.85805563076346" width="161.44373583578368" class="icon-icon-0" data-fill-palette-color="accent" id="icon-0"><path d="M10.7 87.6h78.5c4 0 7.2-3.2 7.2-7.2V19.5c0-4-3.2-7.2-7.2-7.2H10.7c-4 0-7.2 3.2-7.2 7.2v60.9C3.6 84.4 6.8 87.6 10.7 87.6zM89.3 82.6H10.7c-1.2 0-2.2-1-2.2-2.2V34.9h82.9v45.5C91.4 81.7 90.5 82.6 89.3 82.6zM10.7 17.4h78.5c1.2 0 2.2 1 2.2 2.2v10.4H8.6V19.5C8.6 18.3 9.5 17.4 10.7 17.4zM21.9 23.6c0-1.7 1.4-3 3-3s3 1.4 3 3c0 1.7-1.4 3-3 3S21.9 25.3 21.9 23.6zM31.9 23.6c0-1.7 1.4-3 3-3s3 1.4 3 3c0 1.7-1.4 3-3 3S31.9 25.3 31.9 23.6zM11.9 23.6c0-1.7 1.4-3 3-3 1.7 0 3 1.4 3 3 0 1.7-1.4 3-3 3C13.3 26.7 11.9 25.3 11.9 23.6zM85.4 74.7c0 1.4-1.1 2.5-2.5 2.5H17.1c-1.4 0-2.5-1.1-2.5-2.5s1.1-2.5 2.5-2.5h65.8C84.3 72.2 85.4 73.4 85.4 74.7zM85.4 64.2c0 1.4-1.1 2.5-2.5 2.5H34.4c-1.4 0-2.5-1.1-2.5-2.5s1.1-2.5 2.5-2.5h48.5C84.3 61.7 85.4 62.8 85.4 64.2zM85.4 53.7c0 1.4-1.1 2.5-2.5 2.5H17.1c-1.4 0-2.5-1.1-2.5-2.5s1.1-2.5 2.5-2.5h65.8C84.3 51.2 85.4 52.3 85.4 53.7zM85.4 43.1c0 1.4-1.1 2.5-2.5 2.5H50c-1.4 0-2.5-1.1-2.5-2.5s1.1-2.5 2.5-2.5h32.9C84.3 40.6 85.4 41.7 85.4 43.1z" fill="#dcdcdc" data-fill-palette-color="accent"></path></svg></g></svg></g><g></g></svg></g><defs></defs></svg><rect width="395.52" height="235.1808410635485" fill="none" stroke="none" visibility="hidden"></rect></g></svg></g></svg>